#!OML:ASF H:\Terrain\Walking\May29\JustinRory\Justin.ASF
:FULLY-SPECIFIED
:DEGREES
673
root 7.47405 17.5903 -16.4031 -2.58284 -4.36241 -0.597715
lowerback 6.09747 0.453303 -2.61713
upperback -0.425567 0.516027 2.67591
thorax -3.91321 0.339413 4.20398
lowerneck -16.3365 -3.19307 -10.3867
upperneck 15.5293 -3.08616 6.72032
head 7.7484 -1.45113 3.58319
rclavicle -1.25793e-014 -8.74653e-015
rhumerus -17.7312 28.0471 -97.4012
rradius 102.904
rwrist -24.9316
rhand -17.519 36.282
rfingers 7.12502
rthumb 8.73449 6.48268
lclavicle -1.25793e-014 -8.74653e-015
lhumerus -9.40139 -27.0889 95.1137
lradius 98.3147
lwrist 15.4667
lhand -22.9354 44.7957
lfingers 7.12502
lthumb 3.50544 74.7466
rfemur -3.35805 -3.06322 19.2524
rtibia 19.1381
rfoot -10.936 -10.6526
rtoes 2.67921
lfemur -2.22573 0.363888 -15.5402
ltibia 20.0046
lfoot -13.4419 6.25233
ltoes -8.75568
674
root 7.47481 17.5913 -16.4 -2.40072 -4.24606 -0.769326
lowerback 5.94739 0.383117 -2.38179
upperback -0.39733 0.443959 2.7508
thorax -3.79111 0.296712 4.15502
lowerneck -16.3704 -3.18533 -10.5876
upperneck 15.3474 -3.03069 6.79988
head 7.69381 -1.42624 3.64719
rclavicle -9.86469e-015 -2.46493e-014
rhumerus -17.6729 27.1654 -96.9125
rradius 103.177
rwrist -25.0526
rhand -16.7022 36.3939
rfingers 7.12502
rthumb 9.52269 6.62912
lclavicle -9.86469e-015 -2.46493e-014
lhumerus -9.44521 -26.0839 94.6513
lradius 98.46
lwrist 15.1189
lhand -23.0691 45.3356
lfingers 7.12502
lthumb 3.37633 75.2886
rfemur -3.558 -3.2114 19.4482
rtibia 19.2262
rfoot -11.0337 -10.7319
rtoes 2.515
lfemur -2.39262 0.265583 -15.3539
ltibia 19.9877
lfoot -13.4672 6.2376
ltoes -8.86118
675
root 7.46961 17.5908 -16.3957 -2.29728 -4.23048 -0.545892
lowerback 5.90554 0.369329 -2.6666
upperback -0.41536 0.405095 2.72636
thorax -3.78498 0.283119 4.29497
lowerneck -16.1777 -3.21625 -10.8307
upperneck 15.0724 -3.05444 6.95667
head 7.57846 -1.43679 3.73426
rclavicle 8.18744e-015 -4.77083e-015
rhumerus -17.7794 26.3921 -96.6907
rradius 103.299
rwrist -24.5546
rhand -15.8362 36.887
rfingers 7.12502
rthumb 10.3582 7.1621
lclavicle 8.18744e-015 -4.77083e-015
lhumerus -9.54799 -25.2513 94.261
lradius 98.4907
lwrist 14.9496
lhand -23.6108 45.8006
lfingers 7.12502
lthumb 2.8532 75.7613
rfemur -3.67411 -3.19249 19.2395
rtibia 19.2486
rfoot -11.0253 -10.8216
rtoes 2.67319
lfemur -2.52681 0.298557 -15.5827
ltibia 20.0449
lfoot -13.4632 6.29568
ltoes -9.60635
676
root 7.46583 17.5874 -16.3907 -2.26553 -4.38775 -0.522528
lowerback 5.94569 0.431995 -2.71463
upperback -0.424395 0.484654 2.72258
thorax -3.82501 0.324626 4.31111
lowerneck -15.8716 -3.24288 -11.1522
upperneck 14.8447 -3.10352 7.30192
head 7.46587 -1.44926 3.89602
rclavicle 7.53518e-015 0
rhumerus -17.8755 25.7581 -96.5189
rradius 103.387
rwrist -24.2333
rhand -15.2291 37.3034
rfingers 7.12502
rthumb 10.9438 7.60865
lclavicle 7.53518e-015 0
lhumerus -9.67442 -24.6071 94.04
lradius 98.4454
lwrist 15.0327
lhand -24.5134 45.9129
lfingers 7.12502
lthumb 1.98154 75.8835
rfemur -3.75429 -3.05021 19.241
rtibia 19.3451
rfoot -10.98 -10.8064
rtoes 2.90409
lfemur -2.53791 0.408434 -15.5997
ltibia 20.0583
lfoot -13.4247 6.44092
ltoes -10.246
677
root 7.46607 17.585 -16.3904 -2.1989 -4.42465 -0.598688
lowerback 5.95163 0.446588 -2.62303
upperback -0.406426 0.511852 2.76004
thorax -3.81174 0.336112 4.29568
lowerneck -15.8004 -3.19649 -11.4352
upperneck 14.7872 -3.03494 7.6108
head 7.43695 -1.40494 4.05447
rclavicle 8.93289e-015 3.57812e-014
rhumerus -17.8661 25.2546 -96.3419
rradius 103.537
rwrist -24.5692
rhand -14.8618 37.414
rfingers 7.12502
rthumb 11.2981 7.73828
lclavicle 8.93289e-015 3.57812e-014
lhumerus -9.62993 -24.041 93.8342
lradius 98.3531
lwrist 15.38
lhand -25.3872 45.9617
lfingers 7.12502
lthumb 1.1376 75.9384
rfemur -3.88063 -3.13801 19.3244
rtibia 19.4604
rfoot -10.9872 -10.6694
rtoes 2.65368
lfemur -2.61547 0.508496 -15.5061
ltibia 20.084
lfoot -13.4489 6.36797
ltoes -10.1839
